<svg width="32" height="29" viewBox="0 0 32 29" fill="none" xmlns="http://www.w3.org/2000/svg">
<path d="M31.3578 11.1572C29.8834 8.81161 27.8897 8.89538 26.1808 8.82836C25.6447 8.79485 25.0918 8.92888 24.6227 9.19695C24.7903 7.9404 24.9075 7.13622 24.9075 7.0692C24.9243 6.36554 24.1704 2.76345 14.5201 1.05455C5.55678 -0.537066 3.21124 2.41162 2.57459 3.53413C2.47407 3.70167 -0.307079 20.1205 0.0279985 22.533C0.279307 24.309 3.66359 26.8891 9.25939 28.1624C14.8552 29.4356 20.4678 28.1456 21.339 26.9728C21.6908 26.5037 22.1766 24.309 22.696 21.5613C25.0751 23.3372 28.4426 22.4995 29.9169 20.9247C31.2405 19.5173 32.8489 13.5027 31.3578 11.1572ZM29.096 16.0158C28.9285 16.753 28.3086 20.0535 26.1473 20.1875C24.4719 20.288 23.584 20.1707 23.3159 19.3163L24.8238 12.0451C25.5944 11.6263 26.4489 11.375 27.3368 11.3079C27.873 11.2744 28.8447 11.6598 28.8447 11.6598C28.9117 11.8441 28.962 12.0284 28.9787 12.2294C29.3306 13.4524 29.3641 14.7592 29.096 16.0158Z" fill="#DEDEDE"/>
<path d="M28.8279 11.6598C28.8279 11.6598 29.7997 11.8776 30.1515 12.5142C30.2185 12.6315 30.4028 12.9833 30.2688 13.1844C30.2018 13.2681 30.1012 13.3184 29.984 13.3184C29.4478 13.3519 29.029 12.3802 28.962 12.2294C28.8782 12.0451 28.8447 11.8608 28.8279 11.6598Z" fill="black"/>
<path d="M3.88142 4.67339C3.88142 4.67339 4.40079 7.18648 12.895 8.40951C22.0594 9.71632 22.9809 7.67234 22.9809 7.67234C22.9809 7.67234 22.9306 4.62313 13.2133 3.45036C3.81441 2.29434 3.88142 4.67339 3.88142 4.67339Z" fill="black"/>
<path d="M9.34317 5.62837C10.1474 6.39905 10.2311 6.31528 11.0856 6.51632C11.94 6.71737 13.6657 6.38229 12.9285 5.49434C12.1913 4.60638 10.4154 4.28806 9.61123 4.22104C8.80705 4.15403 7.0814 4.08701 6.94736 4.84094C6.81333 5.59486 8.45521 4.77392 9.34317 5.62837Z" fill="white"/>
<path d="M2.03847 15.2283C2.00496 15.6304 2.12224 16.0325 2.35679 16.3676L4.08244 19.5341C4.08244 19.5341 4.65208 20.154 5.07092 19.8357C5.48977 19.5173 5.13794 18.7969 5.13794 18.7969L3.37878 15.5969L6.29396 14.6085C6.6793 14.5079 6.91385 14.1226 6.84684 13.7373C6.76307 13.1844 5.97563 13.3352 5.97563 13.3352L2.59135 14.4074C2.27302 14.5582 2.05522 14.8765 2.03847 15.2283Z" fill="black"/>
<path d="M14.252 19.7016C14.2688 19.2828 14.1348 18.8639 13.8667 18.5289L11.3871 15.1446C11.3871 15.1446 10.9515 14.6587 10.4489 14.977C9.9463 15.2954 10.3987 16.0158 10.3987 16.0158L12.7442 19.3163L9.09185 20.1707C9.09185 20.1707 8.37143 20.288 8.52222 21.0084C8.63949 21.5613 9.52745 21.4608 9.52745 21.4608L13.6489 20.4891C13.984 20.3718 14.2353 20.0535 14.252 19.7016Z" fill="black"/>
</svg>
