<svg width="52" height="57" viewBox="0 0 52 57" fill="none" xmlns="http://www.w3.org/2000/svg">
<path d="M47.246 15.7957C46.9109 11.1163 44.8703 8.24473 42.4242 6.11364C38.3882 2.59532 32.846 1.51804 29.0211 0.765793C26.9486 0.358673 18.2819 -0.284676 13.2205 2.12956C11.7249 2.86306 10.3104 3.75141 9.0002 4.78003C6.9579 6.35154 6.15204 9.1997 4.83351 11.4146C1.6888 16.7373 -0.0904596 22.4068 1.89823 26.8617C2.96545 29.2524 4.56377 31.7337 5.82031 33.9435C4.83907 33.8471 3.84847 33.9508 2.90849 34.2485C-1.2448 35.4681 1.51624 41.6202 2.23833 42.4244C2.96042 43.2285 5.06136 44.3762 8.43727 43.3525C8.9277 43.2078 9.39568 42.9958 9.82784 42.7226C13.7516 48.8964 21.9912 55.6733 31.9882 56.8159C48.2127 58.6706 51.0357 46.0214 51.0357 40.7573C51.0357 33.8598 48.0418 27.0141 47.246 15.7957Z" fill="#DEDEDE"/>
<path d="M28.6224 26.4361C29.6159 26.6254 30.6328 27.3944 30.7133 28.3092C30.7937 29.224 30.3212 30.7486 28.6224 30.7486C26.9235 30.7486 26.2266 29.5289 26.3137 28.403C26.4008 27.2772 27.7696 26.2736 28.6224 26.4361Z" fill="black"/>
<path d="M43.2468 24.3486C44.366 24.4491 45.326 25.3052 45.326 26.2619C45.326 27.2185 44.6558 28.1752 43.6623 28.2171C42.6688 28.2589 41.625 27.5469 41.6669 26.282C41.7088 25.0171 42.7827 24.3084 43.2468 24.3486Z" fill="black"/>
<path d="M26.6001 41.2868C28.8401 39.2964 32.2663 42.034 37.1467 42.034C42.8766 42.034 44.5737 38.8843 47.5911 41.3521C49.0504 42.5433 47.9949 46.5156 45.9341 48.8679C44.3626 50.6606 43.4428 52.1734 38.5323 52.9073C29.3478 54.2828 21.1752 46.1102 26.6001 41.2868Z" fill="black"/>
<path d="M31.8944 32.0839C31.8817 31.9951 31.8377 31.9139 31.7705 31.8546C31.7033 31.7953 31.6171 31.762 31.5275 31.7605C31.3855 31.7537 31.2458 31.7979 31.1336 31.8852C31.0214 31.9724 30.9442 32.097 30.916 32.2363C30.916 32.2363 30.7585 33.3437 29.7331 33.7542C28.9407 34.0709 28.5336 34.1044 28.1382 34.1094C28.1382 34.1094 27.6959 34.0926 27.7679 34.5919C27.7686 34.6456 27.7819 34.6984 27.8066 34.7461C27.8313 34.7938 27.8668 34.8351 27.9103 34.8667C28.1935 35.0242 28.4129 35.0242 28.8134 35.0191C29.508 35.0338 30.1844 34.7956 30.7166 34.349C31.4772 33.7609 31.9547 32.4106 31.8944 32.0839Z" fill="black"/>
<path d="M42.5247 30.1572C42.6104 30.083 42.7193 30.0412 42.8326 30.0391C42.9458 30.0369 43.0562 30.0746 43.1446 30.1454C43.4635 30.4687 43.8433 30.7255 44.2621 30.901C44.7525 31.1272 45.2952 31.2152 45.8319 31.1557C46.0213 31.1473 46.358 31.2194 46.358 31.5745C46.358 31.8627 45.8219 31.9364 45.6879 31.9448C45.029 32.0033 44.3661 31.8938 43.7612 31.6265C42.9536 31.2679 42.6387 30.8709 42.5365 30.7368C42.4775 30.6522 42.4449 30.5519 42.4429 30.4488C42.4408 30.3456 42.4693 30.2441 42.5247 30.1572Z" fill="black"/>
<path d="M38.2458 30.4118C38.9913 31.1892 40.469 32.8847 41.3939 33.6369C42.3187 34.3892 43.5484 34.8281 43.5484 36.723C43.5484 38.1906 42.2215 39.2177 40.02 39.0233C38.2123 38.8642 38.0431 38.6229 37.9442 38.4771C37.5807 37.9427 38.2625 37.7132 38.4787 37.75C38.9813 37.8371 38.9813 37.8773 39.9983 38.0365C41.0152 38.1957 42.131 38.1504 42.4309 37.0732C42.6906 36.14 42.3471 35.6038 40.7874 34.3557C39.3968 33.2449 37.6544 31.0686 37.6544 31.0686C37.6544 31.0686 36.5218 29.7283 37.0697 29.5808C37.3696 29.5021 37.9995 30.1572 38.2458 30.4118Z" fill="black"/>
<path d="M41.5631 21.0229C42.3539 20.9593 42.8364 20.7264 45.6008 21.1603C46.7903 21.3463 47.9279 22.0767 47.9279 22.0767C47.9279 22.0767 48.598 22.1605 48.5511 20.971C48.521 20.269 47.628 19.7848 47.628 19.7848C47.2746 19.5672 46.9049 19.3774 46.5222 19.2169C44.5118 18.468 43.0223 18.2233 42.1662 18.3071C40.6835 18.4512 40.1323 18.6053 39.9195 18.9572C39.752 19.2319 39.9195 20.4969 40.1641 20.8001C40.5444 21.2525 40.9046 21.0765 41.5631 21.0229Z" fill="black"/>
<path d="M30.3246 20.5907C31.1304 20.6409 30.8925 20.1819 30.735 20.016C30.4351 19.6977 30.0649 19.6407 29.2892 19.5888C28.0896 19.5067 26.7761 19.7563 24.5428 20.5287C22.3095 21.301 19.8517 23.0418 19.5166 23.7119C19.3005 24.1408 19.7663 24.6837 20.1482 24.9802C20.5755 25.3153 21.5355 24.8127 22.1202 24.4893C23.6766 23.6349 28.2957 22.4286 29.3847 22.256C30.2056 22.1237 31.303 21.9879 31.3013 21.8087C31.2896 21.0062 30.1872 21.3429 29.7298 21.286C29.2456 21.2206 29.0295 20.5103 30.3246 20.5907Z" fill="black"/>
<path d="M18.823 24.8244C19.1732 25.2483 19.3943 25.4376 19.4295 25.6805C19.4647 25.9234 19.0308 26.1965 18.7493 25.9251C18.4678 25.6537 17.9351 25.0254 18.1344 24.7406C18.4142 24.3419 18.7225 24.7038 18.823 24.8244Z" fill="black"/>
<path d="M9.75076 42.7812C9.75076 42.7812 10.57 42.478 10.9604 41.7978C11.3508 41.1176 11.4362 41.7307 11.4195 41.9335C11.4027 42.1362 11.6356 43.18 10.6002 44.0294C10.178 43.438 9.75076 42.7812 9.75076 42.7812Z" fill="black"/>
<path d="M35.205 51.5318C37.5991 51.7613 40.8309 51.0911 40.8309 50.2786C40.8309 48.759 37.5003 46.5927 34.0858 46.5106C31.2712 46.4419 30.2626 48.8042 30.2324 49.0438C30.0883 50.2501 31.9715 51.2218 35.205 51.5318Z" fill="white"/>
<path d="M44.2304 7.5595C42.4193 5.48537 39.3114 2.62883 31.5226 1.11763C24.3184 -0.279648 18.5517 -0.680066 12.1969 1.77438C9.93517 2.64726 7.37182 4.36453 6.14544 5.8506C4.5689 7.75552 4.35612 9.79447 4.85874 12.2958C2.33225 12.3578 1.22314 13.874 0.425658 16.6954C-1.45748 23.3567 3.629 30.6598 4.2623 31.665C4.50691 32.0537 5.70816 32.5027 5.70816 32.5027C5.70816 32.5027 11.2738 33.203 11.4045 30.3548C11.5117 28.0311 7.50083 27.4062 7.50083 27.4062C7.50083 27.4062 10.8516 27.8451 11.6022 26.0374C13.6612 21.043 8.55632 18.7193 8.55632 18.7193C8.55632 18.7193 13.6395 22.6196 17.3203 19.6625C18.416 18.2167 16.2028 16.5078 16.2028 16.5078C16.2028 16.5078 26.106 19.0493 31.7839 17.5582C35.706 16.5295 35.4698 14.0097 32.9014 13.7467C34.4545 15.5896 41.3772 16.7239 43.8786 16.7624C47.427 16.8294 49.5967 15.3836 49.5967 15.3836C49.3755 13.1017 46.3313 9.96871 44.2304 7.5595Z" fill="black"/>
<path d="M15.6465 40.7121C15.6465 40.7121 14.0096 41.1779 13.4417 42.555C13.2466 43.0511 13.1573 43.5825 13.1795 44.115C13.2017 44.6476 13.3349 45.1697 13.5707 45.6478L15.6465 40.7121Z" fill="black"/>
<path d="M17.5799 42.4528L16.2094 47.6868C16.2094 47.6868 17.992 47.3148 18.2484 45.4401C18.5047 43.5653 17.5799 42.4528 17.5799 42.4528Z" fill="black"/>
<path d="M7.77216 9.49625C7.77216 9.49625 9.6754 5.96285 12.7983 5.15867C15.9212 4.35448 17.8245 4.65605 17.8245 4.65605L7.77216 9.49625Z" fill="white"/>
<path d="M6.25424 14.1572C6.25424 14.1572 7.20921 13.5205 9.0823 13.7769C10.9554 14.0332 11.4262 15.4137 11.4262 15.4137C11.4262 15.4137 9.95685 16.0839 8.49926 15.8493C7.04167 15.6148 6.25424 14.1572 6.25424 14.1572Z" fill="white"/>
<path d="M3.96398 16.4592C3.13181 17.7292 2.80103 19.2631 3.03581 20.7632C3.4312 23.2881 5.42324 24.5915 5.42324 24.5915L3.96398 16.4592Z" fill="white"/>
<path d="M37.9057 7.41877C37.9057 7.41877 40.134 6.82903 41.6737 8.01856C42.1247 8.36566 42.4981 8.80329 42.7699 9.30332C43.0417 9.80336 43.2059 10.3547 43.2519 10.922C43.2519 10.922 41.4776 10.024 37.9057 7.41877Z" fill="white"/>
<path d="M2.39917 36.2841C1.26828 37.5171 2.66221 40.1626 2.66221 40.1626L5.75163 35.5938C5.75163 35.5938 3.64901 34.922 2.39917 36.2841Z" fill="black"/>
<path d="M4.18848 31.5192C4.18848 31.5192 6.34303 35.4916 8.37695 35.7261C10.3874 35.9557 11.6976 34.7728 10.9738 33.6554C10.25 32.5379 8.16585 31.9783 4.18848 31.5192Z" fill="black"/>
<path d="M4.97088 12.4918C4.97088 12.4918 3.7713 13.0447 1.89319 12.13C0.0150785 11.2152 0 6.90107 0 6.90107C0 6.90107 2.48795 8.17939 3.83999 9.58169C5.19203 10.984 4.97088 12.4918 4.97088 12.4918Z" fill="black"/>
<path d="M44.7899 8.27322C44.7899 8.27322 46.9846 10.8684 50.1327 9.94861C50.957 9.78107 51.0742 10.535 50.6738 10.9103C50.2734 11.2856 49.2665 12.2305 47.4135 11.8418C46.544 11.6609 44.7899 8.27322 44.7899 8.27322Z" fill="black"/>
</svg>
